<svg id="eede9c45-f6ed-4f66-bdfe-a2b4d13a8cc0" data-name="Livello 1" xmlns="http://www.w3.org/2000/svg" viewBox="0 0 136.18 50.63"><path d="M278.45,224.09H200.22c-26.62,0-25,25.91-25,25.91s-.61,24.71,26,24.71,23.87-25.55,23.87-25.55H201v8.57h13.82S212.1,266,201.66,266s-17.23-7.92-17.23-16.45c0,0-.66-16.28,16.63-16.28h77.39Z" transform="translate(-175.24 -224.09)" style="fill:#ffffff"/><rect x="66.01" y="20.18" width="9.63" height="30.45" style="fill:#ffffff"/><path d="M267.72,224.14l15.93,24.49-17,26s0,.05.07.07h10.76L289,257h.07l11.6,17.75h10.76v-.07l-17-26,5.38-8.26-10.76,0q-5.31-8.13-10.61-16.25Z" transform="translate(-175.24 -224.09)" style="fill:#ffffff"/><polygon points="130.22 7.31 118.62 7.31 113.8 0 135.07 0 130.22 7.31" style="fill:#ffffff"/></svg>